# xmcd
#
# Track frame offsets:
#	150
#	40441
#	73813
#	104402
#	136848
#	169832
#	196626
#
# Disc length: 3006 seconds
#
# Revision: 1
# Processed by: cddbd v1.5.2PL0 Copyright (c) Steve Scherf et al.
# Submitted via: audiograbber 1.83.01
#
DISCID=5f0bbc07
DTITLE=Howard Jones - Bonus Tracks
DYEAR=1900
DGENRE=Rock
TTITLE0=Pearl In The Shell (Remix Version - U.S. Promo) 
TTITLE1=Things Can Only Get Better (Extended Version) 
TTITLE2=Life In One Day (Special Remix Part 1) 
TTITLE3=Life In One Day (Special Remix Part 2) 
TTITLE4=You Know I Love You...Don't You? (Dance In The Fields Mix) 
TTITLE5=You Know I Love You...Don't You? (Instrumental) 
TTITLE6=All I Want (Extended Version) 
EXTD=
EXTT0=
EXTT1=
EXTT2=
EXTT3=
EXTT4=
EXTT5=
EXTT6=
PLAYORDER=
